<?xml version="1.0" encoding="UTF-8" standalone="no"?>
<!-- Created with Inkscape (http://www.inkscape.org/) -->

<svg
   width="200mm"
   height="200mm"
   viewBox="0 0 200 200"
   version="1.1"
   id="svg1"
   xml:space="preserve"
   sodipodi:docname="logo_vec_dark.svg"
   inkscape:version="1.3.2 (091e20e, 2023-11-25, custom)"
   xmlns:inkscape="http://www.inkscape.org/namespaces/inkscape"
   xmlns:sodipodi="http://sodipodi.sourceforge.net/DTD/sodipodi-0.dtd"
   xmlns="http://www.w3.org/2000/svg"
   xmlns:svg="http://www.w3.org/2000/svg"><sodipodi:namedview
     id="namedview1"
     pagecolor="#ffffff"
     bordercolor="#111111"
     borderopacity="1"
     inkscape:showpageshadow="0"
     inkscape:pageopacity="0"
     inkscape:pagecheckerboard="1"
     inkscape:deskcolor="#d1d1d1"
     inkscape:document-units="mm"
     inkscape:zoom="1"
     inkscape:cx="108"
     inkscape:cy="310.5"
     inkscape:window-width="1920"
     inkscape:window-height="1009"
     inkscape:window-x="-8"
     inkscape:window-y="-8"
     inkscape:window-maximized="1"
     inkscape:current-layer="layer2" /><defs
     id="defs1"><inkscape:path-effect
       effect="bspline"
       id="path-effect27"
       is_visible="true"
       lpeversion="1.3"
       weight="33.333333"
       steps="2"
       helper_size="0"
       apply_no_weight="true"
       apply_with_weight="true"
       only_selected="false"
       uniform="false" /><inkscape:path-effect
       effect="bspline"
       id="path-effect26"
       is_visible="true"
       lpeversion="1.3"
       weight="33.333333"
       steps="2"
       helper_size="0"
       apply_no_weight="true"
       apply_with_weight="true"
       only_selected="false"
       uniform="false" /><inkscape:path-effect
       effect="bspline"
       id="path-effect25"
       is_visible="true"
       lpeversion="1.3"
       weight="33.333333"
       steps="2"
       helper_size="0"
       apply_no_weight="true"
       apply_with_weight="true"
       only_selected="false"
       uniform="false" /><inkscape:path-effect
       effect="fillet_chamfer"
       id="path-effect24"
       is_visible="true"
       lpeversion="1"
       nodesatellites_param="F,0,0,1,0,0,0,1 @ F,0,0,1,0,0,0,1 @ F,0,0,1,0,0.055943375,0,1 | F,0,0,1,0,0.065811332,0,1 @ F,0,0,1,0,0.067514276,0,1 @ F,0,0,1,0,0,0,1 @ F,0,0,1,0,0,0,1 @ F,0,0,1,0,0,0,1 @ F,0,0,1,0,0,0,1 @ F,0,0,1,0,0,0,1 @ F,0,0,1,0,0.20947471,0,1"
       radius="0"
       unit="px"
       method="auto"
       mode="F"
       chamfer_steps="1"
       flexible="false"
       use_knot_distance="true"
       apply_no_radius="true"
       apply_with_radius="true"
       only_selected="false"
       hide_knots="false" /><inkscape:path-effect
       effect="fillet_chamfer"
       id="path-effect23"
       is_visible="true"
       lpeversion="1"
       nodesatellites_param="F,0,0,1,0,0,0,1 @ F,0,0,1,0,0,0,1 @ F,0,0,1,0,0,0,1 | F,0,0,1,0,0,0,1 @ F,0,0,1,0,0,0,1 @ F,0,0,1,0,0,0,1 @ F,0,0,1,0,0,0,1 @ F,0,0,1,0,0,0,1 @ F,0,0,1,0,0,0,1 @ F,0,0,1,0,0,0,1 @ F,0,0,1,0,0,0,1"
       radius="0"
       unit="px"
       method="auto"
       mode="F"
       chamfer_steps="1"
       flexible="false"
       use_knot_distance="true"
       apply_no_radius="true"
       apply_with_radius="true"
       only_selected="false"
       hide_knots="false" /><inkscape:path-effect
       effect="fillet_chamfer"
       id="path-effect22"
       is_visible="true"
       lpeversion="1"
       nodesatellites_param="F,0,0,1,0,0,0,1 @ F,0,0,1,0,0,0,1 @ F,0,0,1,0,0,0,1 | F,0,0,1,0,0,0,1 @ F,0,0,1,0,0,0,1 @ F,0,0,1,0,0,0,1 @ F,0,0,1,0,0,0,1 @ F,0,0,1,0,0,0,1 @ F,0,0,1,0,0,0,1 @ F,0,0,1,0,0,0,1 @ F,0,0,1,0,0,0,1"
       radius="0"
       unit="px"
       method="auto"
       mode="F"
       chamfer_steps="1"
       flexible="false"
       use_knot_distance="true"
       apply_no_radius="true"
       apply_with_radius="true"
       only_selected="false"
       hide_knots="false" /><inkscape:path-effect
       effect="bspline"
       id="path-effect21"
       is_visible="true"
       lpeversion="1.3"
       weight="33.333333"
       steps="2"
       helper_size="0"
       apply_no_weight="true"
       apply_with_weight="true"
       only_selected="false"
       uniform="false" /><inkscape:path-effect
       effect="bspline"
       id="path-effect20"
       is_visible="true"
       lpeversion="1.3"
       weight="33.333333"
       steps="2"
       helper_size="0"
       apply_no_weight="true"
       apply_with_weight="true"
       only_selected="false"
       uniform="false" /><inkscape:path-effect
       effect="bspline"
       id="path-effect19"
       is_visible="true"
       lpeversion="1.3"
       weight="33.333333"
       steps="2"
       helper_size="0"
       apply_no_weight="true"
       apply_with_weight="true"
       only_selected="false"
       uniform="false" /><inkscape:path-effect
       effect="bspline"
       id="path-effect18"
       is_visible="true"
       lpeversion="1.3"
       weight="33.333333"
       steps="2"
       helper_size="0"
       apply_no_weight="true"
       apply_with_weight="true"
       only_selected="false"
       uniform="false" /><inkscape:path-effect
       effect="bspline"
       id="path-effect17"
       is_visible="true"
       lpeversion="1.3"
       weight="33.333333"
       steps="2"
       helper_size="0"
       apply_no_weight="true"
       apply_with_weight="true"
       only_selected="false"
       uniform="false" /><inkscape:path-effect
       effect="bspline"
       id="path-effect15"
       is_visible="true"
       lpeversion="1.3"
       weight="33.333333"
       steps="2"
       helper_size="0"
       apply_no_weight="true"
       apply_with_weight="true"
       only_selected="false"
       uniform="false" /><inkscape:path-effect
       effect="bspline"
       id="path-effect14"
       is_visible="true"
       lpeversion="1.3"
       weight="33.333333"
       steps="2"
       helper_size="0"
       apply_no_weight="true"
       apply_with_weight="true"
       only_selected="false"
       uniform="false" /><inkscape:path-effect
       effect="bspline"
       id="path-effect13"
       is_visible="true"
       lpeversion="1.3"
       weight="33.333333"
       steps="2"
       helper_size="0"
       apply_no_weight="true"
       apply_with_weight="true"
       only_selected="false"
       uniform="false" /><inkscape:path-effect
       effect="bspline"
       id="path-effect11"
       is_visible="true"
       lpeversion="1.3"
       weight="33.333333"
       steps="2"
       helper_size="0"
       apply_no_weight="true"
       apply_with_weight="true"
       only_selected="false"
       uniform="false" /><inkscape:path-effect
       effect="bspline"
       id="path-effect15-3"
       is_visible="true"
       lpeversion="1.3"
       weight="33.333333"
       steps="2"
       helper_size="0"
       apply_no_weight="true"
       apply_with_weight="true"
       only_selected="false"
       uniform="false" /><inkscape:path-effect
       effect="bspline"
       id="path-effect15-1"
       is_visible="true"
       lpeversion="1.3"
       weight="33.333333"
       steps="2"
       helper_size="0"
       apply_no_weight="true"
       apply_with_weight="true"
       only_selected="false"
       uniform="false" /><inkscape:path-effect
       effect="fillet_chamfer"
       id="path-effect24-4"
       is_visible="true"
       lpeversion="1"
       nodesatellites_param="F,0,0,1,0,0,0,1 @ F,0,0,1,0,0,0,1 @ F,0,0,1,0,0.055943375,0,1 | F,0,0,1,0,0.065811332,0,1 @ F,0,0,1,0,0.067514276,0,1 @ F,0,0,1,0,0,0,1 @ F,0,0,1,0,0,0,1 @ F,0,0,1,0,0,0,1 @ F,0,0,1,0,0,0,1 @ F,0,0,1,0,0,0,1 @ F,0,0,1,0,0.20947471,0,1"
       radius="0"
       unit="px"
       method="auto"
       mode="F"
       chamfer_steps="1"
       flexible="false"
       use_knot_distance="true"
       apply_no_radius="true"
       apply_with_radius="true"
       only_selected="false"
       hide_knots="false" /></defs><g
     inkscape:groupmode="layer"
     id="layer2"
     inkscape:label="logo"
     style="display:inline"><path
       style="display:inline;fill:#311717;fill-opacity:1;stroke:#3f0000;stroke-width:0;stroke-dasharray:none;stroke-opacity:1"
       id="path28"
       sodipodi:type="arc"
       sodipodi:cx="99.879997"
       sodipodi:cy="99.6325"
       sodipodi:rx="99.379997"
       sodipodi:ry="99.483002"
       sodipodi:start="5.872756"
       sodipodi:end="5.8050687"
       sodipodi:arc-type="chord"
       d="M 191.00645,59.938482 A 99.379997,99.483002 0 0 1 141.06919,190.16868 99.379997,99.483002 0 0 1 10.147473,142.39045 99.379997,99.483002 0 0 1 55.654072,10.543339 99.379997,99.483002 0 0 1 188.11583,53.859595 Z"
       sodipodi:open="true" /><path
       id="path3"
       style="display:inline;fill:#ec940c;fill-opacity:1;stroke:#ec940c;stroke-width:0.265222;stroke-opacity:1"
       d="M 100.06056,8.523511 86.868083,50.559188 c 4.487967,-1.286073 9.132637,-1.943459 13.801227,-1.953369 4.09519,0.001 8.17504,0.500258 12.14964,1.486731 z m 34.50694,33.915242 -12.12071,11.11095 c 2.82285,1.35059 5.51403,2.960694 8.03879,4.809526 z m -69.035583,0.12454 4.319117,16.693555 c 2.490025,-1.931477 5.155413,-3.625588 7.961271,-5.060156 z M 149.86062,87.78637 c 0.85745,3.70866 1.29275,7.50238 1.2976,11.30887 -0.0425,3.75637 -0.50405,7.49626 -1.37615,11.15023 l 34.26096,-11.30061 z m -98.357821,0.40566 -35.290352,11.98583 35.43553,10.48825 c -0.934731,-3.78729 -1.427393,-7.67015 -1.468127,-11.57087 0.04318,-3.6717 0.486775,-7.32773 1.322916,-10.90321 z m 3.096969,31.49524 -14.282332,19.40553 22.827547,-6.30091 c -3.511979,-3.89769 -6.394986,-8.31896 -8.545215,-13.10462 z m 15.449186,19.61379 -4.299479,16.89561 12.543937,-11.86853 -1.128096,-0.68781 c -1.915416,-1.00526 -3.764247,-2.13258 -5.535063,-3.37499 z m 59.826326,0.83871 c -2.55193,1.85851 -5.27255,3.47358 -8.12612,4.82399 l 12.51086,11.90884 z m -16.01866,7.62537 c -4.29619,1.1859 -8.7305,1.79772 -13.18731,1.81953 -4.36315,-0.0263 -8.70449,-0.61814 -12.915493,-1.76062 l 13.028663,42.01191 z"
       inkscape:label="trojuhelnicky"
       sodipodi:nodetypes="ccccccccccccccccccccccccccccccccccccccccccc" /><path
       id="path13"
       style="fill:#ec940c;fill-opacity:1;stroke:#ec940c;stroke-width:0;stroke-opacity:1"
       d="m 47.884952,83.722792 c 0,0 17.42649,19.588698 17.771435,18.939728 l 6.947319,-13.064551 a 0.04311751,0.04311751 65.62534 0 0 -0.02819,-0.06221 z m 24.633633,5.842081 -6.931092,13.042687 c -0.0175,0.0329 -0.002,0.0652 0.03478,0.0715 0.749968,0.12833 1.806942,0.11858 2.639215,-0.15535 0.838994,-0.27613 1.682109,-0.76802 2.619995,-1.59628 0.937886,-0.82827 1.91839,-2.027983 2.579171,-3.172936 0.660781,-1.144954 1.001422,-2.234809 1.111043,-3.273186 0.109621,-1.038376 -0.111449,-1.909292 -0.30024,-2.60966 -0.160444,-0.595192 -0.416956,-1.061336 -0.666059,-1.3935 -0.06938,-0.09251 -0.191319,-0.235329 -0.272545,-0.317674 -0.233107,-0.23632 -0.484257,-0.415596 -0.733346,-0.613632 -0.02772,-0.02204 -0.06386,-0.01407 -0.08092,0.01803 z"
       sodipodi:nodetypes="ccccccssssssc"
       inkscape:path-effect="#path-effect24"
       inkscape:original-d="m 47.884952,83.722792 c 0,0 17.42649,19.588698 17.771435,18.939728 l 6.973585,-13.113945 z m 24.664516,5.783966 -6.993657,13.160422 c 0.752996,0.14056 1.848507,0.13865 2.705675,-0.14347 0.838994,-0.27613 1.682109,-0.76802 2.619995,-1.59628 0.937886,-0.82827 1.91839,-2.027983 2.579171,-3.172936 0.660781,-1.144954 1.001422,-2.234809 1.111043,-3.273186 0.109621,-1.038376 -0.111449,-1.909292 -0.30024,-2.60966 -0.188796,-0.700367 -0.510611,-1.22205 -0.79685,-1.557009 -0.286239,-0.33496 -0.60845,-0.552097 -0.925137,-0.807881 z"
       transform="translate(-9.525,-20.6375)" /><path
       id="path24"
       style="fill:#ec940c;fill-opacity:1;stroke:#ec940c;stroke-width:0;stroke-dasharray:none;stroke-opacity:1"
       inkscape:label="path24"
       d="m 72.388863,123.23382 c -0.374184,0.008 -0.70083,-0.0655 -0.87574,0.13051 l -0.0084,0.009 c -0.0099,0.0111 -7.120968,12.75516 -10.683068,19.1332 6.382298,-3.92278 19.055861,-11.57958 19.149203,-11.82045 l 0.0042,-0.0101 c 0.105514,-0.25067 -0.103095,-0.78608 -0.62536,-2.09942 -0.265046,-0.6665 -0.615631,-1.25074 -1.044381,-1.81591 -0.42875,-0.56516 -0.93548,-1.11084 -1.414901,-1.55907 -0.47942,-0.44824 -0.931364,-0.79904 -1.453658,-1.09916 -0.522294,-0.30012 -1.114728,-0.5498 -1.652612,-0.69402 -0.537885,-0.14421 -1.021079,-0.18298 -1.395264,-0.17518 z"
       sodipodi:nodetypes="sssccssssssss" /><path
       id="path25"
       style="fill:#ec940c;fill-opacity:1;stroke:#ec940c;stroke-width:0;stroke-dasharray:none;stroke-opacity:1"
       d="m 132.84238,113.38294 c 0,0 -0.11539,-0.14905 -0.25202,-0.15781 -0.47401,-0.0304 -1.40007,-0.1059 -2.19108,-0.003 -0.85307,0.11088 -1.80769,0.39623 -2.66858,0.81598 -0.86089,0.41973 -1.81411,0.96137 -2.59674,1.68206 -0.78262,0.72069 -1.58092,1.60778 -2.26962,2.55023 -0.68871,0.94244 -1.26758,1.94033 -1.65107,3.06493 -0.38349,1.1246 -0.57169,2.37614 -0.50126,3.51658 0.0701,1.13528 0.61859,2.72239 0.77024,2.9164 0.30075,0.38469 0.41699,0.38237 0.41699,0.38237 l 39.85522,17.76764 z"
       sodipodi:nodetypes="cssssssssccc" /><path
       id="path27"
       style="fill:#ec940c;fill-opacity:1;stroke:#ec940c;stroke-width:0;stroke-dasharray:none;stroke-opacity:1"
       d="M 148.96041,53.578125 123.8732,67.377039 c 0,0 -0.24483,0.204613 -0.29088,0.275024 -0.37764,0.577373 -0.42658,1.000914 -0.5707,1.653266 -0.14811,0.670411 -0.21813,1.457678 -0.11679,2.25671 0.10134,0.799031 0.37407,1.609738 0.79892,2.385384 0.42485,0.775646 1.00195,1.516094 1.6061,2.128035 0.60415,0.611942 1.23522,1.09556 1.98748,1.504818 0.75226,0.409259 1.62537,0.744076 2.37763,0.938961 0.75226,0.194885 1.38398,0.249685 1.96474,0.234094 0.54272,-0.01457 1.05759,-0.03187 1.53634,-0.170532 0.18259,-0.05288 0.52296,-0.406694 0.52296,-0.406694 z"
       sodipodi:nodetypes="ccssssssssscc" /></g></svg>
